<svg xmlns="http://www.w3.org/2000/svg" width="40.155" height="37.157" viewBox="0 0 40.155 37.157">
  <g id="Cart" transform="translate(0 -19.115)">
    <path id="Path_1298" data-name="Path 1298" d="M173.188,402.829a3.532,3.532,0,1,0,3.531,3.531A3.536,3.536,0,0,0,173.188,402.829Zm0,5.091a1.56,1.56,0,1,1,1.56-1.56A1.561,1.561,0,0,1,173.188,407.92Z" transform="translate(-156.35 -353.62)" fill="#565555"/>
    <path id="Path_1299" data-name="Path 1299" d="M331.133,402.829a3.532,3.532,0,1,0,3.531,3.531A3.536,3.536,0,0,0,331.133,402.829Zm0,5.091a1.56,1.56,0,1,1,1.56-1.56A1.561,1.561,0,0,1,331.133,407.92Z" transform="translate(-301.908 -353.62)" fill="#565555"/>
    <path id="Path_1300" data-name="Path 1300" d="M191.982,167.727h14.129a.986.986,0,0,0,0-1.972H191.982a.986.986,0,1,0,0,1.972Z" transform="translate(-176.016 -135.139)" fill="#565555"/>
    <path id="Path_1301" data-name="Path 1301" d="M214.38,231.036H201.789a.986.986,0,1,0,0,1.972H214.38a.986.986,0,0,0,0-1.972Z" transform="translate(-185.054 -195.301)" fill="#565555"/>
    <path id="Path_1302" data-name="Path 1302" d="M39.712,26.223a1.964,1.964,0,0,0-1.528-.726H7.473l-.62-3.011a1.974,1.974,0,0,0-1.146-1.411L1.379,19.2a.986.986,0,1,0-.785,1.809l4.327,1.878,4.77,23.157a1.979,1.979,0,0,0,1.931,1.574h23.62a.986.986,0,1,0,0-1.972H11.623l-.58-2.817H35.425a1.979,1.979,0,0,0,1.931-1.574l2.758-13.386A1.964,1.964,0,0,0,39.712,26.223ZM35.425,40.854H10.637L7.879,27.468h30.3Z" transform="translate(0)" fill="#565555"/>
  </g>
</svg>
